<svg viewBox="0 0 296 100" fill="none" xmlns="http://www.w3.org/2000/svg">
<path d="M73.8662 26.0624C74.4925 23.6055 73.0085 21.1061 70.5516 20.4798C68.0946 19.8535 65.5952 21.3376 64.9689 23.7945C64.3427 26.2514 65.8267 28.7509 68.2836 29.3771C70.7405 30.0034 73.24 28.5194 73.8662 26.0624Z" fill="#1C3CF1"/>
<path d="M58.4478 21.9464C59.2763 21.1159 59.7888 19.97 59.7888 18.7043C59.7888 16.1687 57.7334 14.1133 55.1978 14.1133C53.5949 14.1133 52.1856 14.936 51.3645 16.1809C51.1463 16.3995 25.9383 47.4662 25.7677 47.725C24.9392 48.5555 24.4268 49.7014 24.4268 50.9671C24.4268 53.5027 26.4822 55.5581 29.0177 55.5581C30.6207 55.5581 32.03 54.7354 32.8511 53.4904C33.069 53.2716 58.2772 22.205 58.4478 21.9464Z" fill="#1C3CF1"/>
<path d="M64.0008 38.8615C64.8314 38.0307 65.345 36.8832 65.345 35.6156C65.345 33.0801 63.2896 31.0247 60.754 31.0247C59.1503 31.0247 57.7406 31.8483 56.9195 33.0942C56.6995 33.3142 39.5752 54.4938 39.4033 54.7546C38.5727 55.5854 38.0591 56.7329 38.0591 58.0005C38.0591 60.5361 40.1145 62.5915 42.6501 62.5915C44.2537 62.5915 45.6635 61.7681 46.4846 60.522C46.7046 60.302 63.829 39.1224 64.0008 38.8615Z" fill="#1C3CF1"/>
<path d="M32.5558 29.214C34.9255 28.3124 36.1156 25.6605 35.214 23.2908C34.3124 20.9211 31.6604 19.731 29.2907 20.6326C26.921 21.5342 25.7309 24.1862 26.6326 26.5559C27.5342 28.9256 30.1861 30.1157 32.5558 29.214Z" fill="#1C3CF1"/>
<g clip-path="url(#clip0_2003_72)">
<path d="M82.7159 56H79.0227L89.7045 26.9091H93.3409L104.023 56H100.33L91.6364 31.5114H91.4091L82.7159 56ZM84.0795 44.6364H98.9659V47.7614H84.0795V44.6364ZM108.099 56V34.1818H111.338V37.4773H111.565C111.963 36.3977 112.683 35.5218 113.724 34.8494C114.766 34.1771 115.94 33.8409 117.247 33.8409C117.493 33.8409 117.801 33.8456 118.17 33.8551C118.54 33.8646 118.819 33.8788 119.009 33.8977V37.3068C118.895 37.2784 118.634 37.2358 118.227 37.179C117.83 37.1127 117.408 37.0795 116.963 37.0795C115.902 37.0795 114.955 37.3021 114.122 37.7472C113.298 38.1828 112.645 38.7888 112.162 39.5653C111.688 40.3324 111.452 41.2083 111.452 42.1932V56H108.099ZM133.838 34.1818V37.0227H122.531V34.1818H133.838ZM125.827 28.9545H129.179V49.75C129.179 50.697 129.316 51.4072 129.591 51.8807C129.875 52.3447 130.235 52.6572 130.67 52.8182C131.116 52.9697 131.584 53.0455 132.077 53.0455C132.446 53.0455 132.749 53.0265 132.986 52.9886C133.223 52.9413 133.412 52.9034 133.554 52.875L134.236 55.8864C134.009 55.9716 133.691 56.0568 133.284 56.142C132.877 56.2367 132.361 56.2841 131.736 56.2841C130.789 56.2841 129.861 56.0805 128.952 55.6733C128.052 55.2661 127.304 54.6458 126.707 53.8125C126.12 52.9792 125.827 51.928 125.827 50.6591V28.9545ZM138.881 56V34.1818H142.233V56H138.881ZM140.585 30.5455C139.932 30.5455 139.368 30.3229 138.895 29.8778C138.431 29.4328 138.199 28.8977 138.199 28.2727C138.199 27.6477 138.431 27.1127 138.895 26.6676C139.368 26.2225 139.932 26 140.585 26C141.239 26 141.797 26.2225 142.261 26.6676C142.735 27.1127 142.972 27.6477 142.972 28.2727C142.972 28.8977 142.735 29.4328 142.261 29.8778C141.797 30.3229 141.239 30.5455 140.585 30.5455ZM151.498 48.0455L151.441 43.8977H152.123L161.668 34.1818H165.816L155.646 44.4659H155.362L151.498 48.0455ZM148.373 56V26.9091H151.725V56H148.373ZM162.237 56L153.714 45.2045L156.1 42.875L166.498 56H162.237ZM178.38 56.4545C176.278 56.4545 174.464 55.9905 172.94 55.0625C171.424 54.125 170.255 52.8182 169.431 51.142C168.617 49.4564 168.21 47.4962 168.21 45.2614C168.21 43.0265 168.617 41.0568 169.431 39.3523C170.255 37.6383 171.401 36.303 172.869 35.3466C174.346 34.3807 176.069 33.8977 178.039 33.8977C179.175 33.8977 180.298 34.0871 181.406 34.4659C182.513 34.8447 183.522 35.4602 184.431 36.3125C185.34 37.1553 186.065 38.2727 186.604 39.6648C187.144 41.0568 187.414 42.7708 187.414 44.8068V46.2273H170.596V43.3295H184.005C184.005 42.0985 183.759 41 183.266 40.0341C182.783 39.0682 182.092 38.3059 181.192 37.7472C180.302 37.1884 179.251 36.9091 178.039 36.9091C176.704 36.9091 175.549 37.2405 174.573 37.9034C173.607 38.5568 172.864 39.4091 172.343 40.4602C171.822 41.5114 171.562 42.6383 171.562 43.8409V45.7727C171.562 47.4205 171.846 48.8172 172.414 49.9631C172.992 51.0994 173.792 51.9659 174.815 52.5625C175.837 53.1496 177.026 53.4432 178.38 53.4432C179.261 53.4432 180.056 53.3201 180.766 53.0739C181.486 52.8182 182.106 52.4394 182.627 51.9375C183.148 51.4261 183.55 50.7917 183.835 50.0341L187.073 50.9432C186.732 52.0417 186.159 53.0076 185.354 53.8409C184.549 54.6648 183.555 55.3087 182.371 55.7727C181.188 56.2273 179.857 56.4545 178.38 56.4545ZM195.866 26.9091V56H192.513V26.9091H195.866ZM201.807 56V26.9091H220.443V31.3267H207.077V39.2244H219.165V43.642H207.077V56H201.807ZM230.159 26.9091V56H225.017V26.9091H230.159ZM244.964 56.4261C242.833 56.4261 240.987 55.9574 239.424 55.0199C237.862 54.0824 236.649 52.7708 235.788 51.0852C234.935 49.3996 234.509 47.4299 234.509 45.1761C234.509 42.9223 234.935 40.9479 235.788 39.2528C236.649 37.5578 237.862 36.2415 239.424 35.304C240.987 34.3665 242.833 33.8977 244.964 33.8977C247.094 33.8977 248.941 34.3665 250.504 35.304C252.066 36.2415 253.273 37.5578 254.126 39.2528C254.987 40.9479 255.418 42.9223 255.418 45.1761C255.418 47.4299 254.987 49.3996 254.126 51.0852C253.273 52.7708 252.066 54.0824 250.504 55.0199C248.941 55.9574 247.094 56.4261 244.964 56.4261ZM244.992 52.3068C246.147 52.3068 247.113 51.9896 247.89 51.3551C248.666 50.7112 249.244 49.8494 249.623 48.7699C250.011 47.6903 250.205 46.4877 250.205 45.1619C250.205 43.8267 250.011 42.6193 249.623 41.5398C249.244 40.4508 248.666 39.5843 247.89 38.9403C247.113 38.2964 246.147 37.9744 244.992 37.9744C243.808 37.9744 242.824 38.2964 242.038 38.9403C241.261 39.5843 240.679 40.4508 240.29 41.5398C239.912 42.6193 239.722 43.8267 239.722 45.1619C239.722 46.4877 239.912 47.6903 240.29 48.7699C240.679 49.8494 241.261 50.7112 242.038 51.3551C242.824 51.9896 243.808 52.3068 244.992 52.3068ZM263.661 56L257.496 34.1818H262.737L266.572 49.5227H266.771L270.692 34.1818H275.876L279.797 49.4375H280.01L283.788 34.1818H289.044L282.865 56H277.51L273.419 41.2557H273.121L269.03 56H263.661Z" fill="white"/>
</g>
<defs>
<clipPath id="clip0_2003_72">
<rect width="219" height="50" fill="white" transform="translate(77 14)"/>
</clipPath>
</defs>
</svg>
